<svg xmlns="http://www.w3.org/2000/svg" viewBox="0 0 1200 630" width="1200" height="630">
  <defs>
    <linearGradient id="bg" x1="0" y1="0" x2="1" y2="1">
      <stop offset="0" stop-color="#0d0d0e"/>
      <stop offset="1" stop-color="#050505"/>
    </linearGradient>
    <radialGradient id="glow" cx="75%" cy="30%" r="50%">
      <stop offset="0" stop-color="#e5484d" stop-opacity="0.15"/>
      <stop offset="1" stop-color="#e5484d" stop-opacity="0"/>
    </radialGradient>
  </defs>
  <rect width="1200" height="630" fill="url(#bg)"/>
  <rect width="1200" height="630" fill="url(#glow)"/>
  <!-- grid -->
  <g stroke="#1c1c1f" stroke-width="1">
    <path d="M0 158 H1200 M0 316 H1200 M0 474 H1200 M300 0 V630 M600 0 V630 M900 0 V630"/>
  </g>
  <!-- DLL proxy chain diagram (top right) -->
  <!-- App box -->
  <rect x="860" y="55" width="90" height="38" rx="4" fill="none" stroke="#2a2a2e" stroke-width="2"/>
  <text x="878" y="79" font-family="'JetBrains Mono', monospace" font-size="13" fill="#3a3a3e">App.exe</text>
  <!-- arrow down to proxy dll -->
  <line x1="905" y1="93" x2="905" y2="125" stroke="#2a2a2e" stroke-width="2"/>
  <polyline points="897,118 905,128 913,118" fill="none" stroke="#2a2a2e" stroke-width="2"/>
  <!-- Malicious DLL box (red border) -->
  <rect x="840" y="128" width="130" height="38" rx="4" fill="none" stroke="#e5484d" stroke-width="2"/>
  <text x="850" y="152" font-family="'JetBrains Mono', monospace" font-size="12" fill="#e5484d">version.dll [evil]</text>
  <!-- arrow right to original dll -->
  <line x1="970" y1="147" x2="1040" y2="147" stroke="#2a2a2e" stroke-width="2"/>
  <polyline points="1033,139 1043,147 1033,155" fill="none" stroke="#2a2a2e" stroke-width="2"/>
  <!-- Original DLL box -->
  <rect x="1043" y="128" width="120" height="38" rx="4" fill="none" stroke="#2a2a2e" stroke-width="2"/>
  <text x="1050" y="152" font-family="'JetBrains Mono', monospace" font-size="12" fill="#3a3a3e">version2.dll</text>
  <!-- label on arrow -->
  <text x="978" y="140" font-family="'JetBrains Mono', monospace" font-size="9" fill="#2a2a2e">forward</text>
  <!-- main heading -->
  <text x="80" y="300" font-family="'JetBrains Mono', monospace" font-size="58" font-weight="700" fill="#fafafa">DLL</text>
  <text x="80" y="372" font-family="'JetBrains Mono', monospace" font-size="58" font-weight="700" fill="#e5484d">Proxying</text>
  <!-- subline -->
  <text x="80" y="432" font-family="'JetBrains Mono', monospace" font-size="26" fill="#fafafa">Hijacking without breaking things.</text>
  <text x="80" y="480" font-family="'JetBrains Mono', monospace" font-size="22" fill="#8a8a93">malware dev · dll hijacking · windows internals</text>
</svg>
